<?xml version="1.0" standalone="no"?>
<!DOCTYPE svg PUBLIC "-//W3C//DTD SVG 20010904//EN"
 "http://www.w3.org/TR/2001/REC-SVG-20010904/DTD/svg10.dtd">
<svg version="1.0" xmlns="http://www.w3.org/2000/svg"
 width="312.000000pt" height="312.000000pt" viewBox="0 0 312.000000 312.000000"
 preserveAspectRatio="xMidYMid meet">
<metadata>
Created by potrace 1.14, written by Peter Selinger 2001-2017
</metadata>
<g transform="translate(0.000000,312.000000) scale(0.100000,-0.100000)"
fill="#000000" stroke="none">
<path d="M1035 1828 l0 -523 527 -3 527 -2 0 525 0 525 -527 0 -527 0 0 -522z"/>
<path d="M2144 2343 c-22 -4 -44 -41 -44 -71 1 -30 27 -54 64 -57 29 -3 40 2
56 23 43 54 -4 119 -76 105z m73 -42 c14 -30 2 -58 -30 -70 -31 -12 -53 -3
-66 26 -28 61 66 104 96 44z"/>
<path d="M2138 2295 c-3 -12 -1 -30 3 -41 7 -17 8 -17 8 -1 1 21 19 23 27 2 4
-8 10 -15 15 -15 6 0 6 8 0 18 -7 13 -7 22 0 29 8 8 7 13 -2 19 -26 15 -47 11
-51 -11z m42 1 c0 -11 -19 -15 -25 -6 -3 5 1 10 9 10 9 0 16 -2 16 -4z"/>
<path d="M1435 1143 c-53 -10 -66 -15 -90 -39 -25 -25 -29 -34 -26 -69 5 -56
40 -81 156 -110 66 -17 90 -37 75 -66 -26 -48 -160 -35 -160 16 0 8 -6 16 -12
16 -22 3 -72 -1 -76 -6 -2 -2 4 -21 14 -42 25 -49 68 -73 142 -77 134 -8 209
61 172 158 -11 31 -54 54 -144 77 -80 21 -95 32 -80 57 24 37 134 27 134 -13
0 -11 11 -15 45 -15 44 0 45 1 39 28 -9 34 -21 50 -53 66 -28 14 -103 24 -136
19z"/>
<path d="M163 1128 c-5 -7 -34 -67 -63 -133 -29 -66 -63 -144 -76 -172 l-24
-53 45 0 c44 0 46 1 64 43 l18 42 64 -2 c35 -1 73 -2 85 -2 15 -1 26 -13 37
-41 15 -39 17 -40 62 -40 26 0 45 4 43 9 -1 5 -39 88 -83 185 l-79 176 -42 0
c-23 0 -46 -6 -51 -12z m75 -145 c12 -28 22 -56 22 -60 0 -7 -69 -10 -101 -4
-4 0 5 30 20 65 14 36 29 62 32 58 3 -4 15 -30 27 -59z"/>
<path d="M577 1108 c-9 -18 -24 -53 -35 -78 -11 -25 -31 -70 -45 -100 -52
-115 -67 -149 -67 -154 0 -4 20 -6 44 -6 42 0 45 2 60 40 17 43 14 42 126 42
17 0 37 -1 46 -1 8 -1 23 -19 32 -41 16 -39 19 -40 65 -40 42 0 47 2 39 18 -5
9 -21 44 -36 77 -15 33 -49 107 -75 165 l-48 105 -45 3 c-43 3 -46 1 -61 -30z
m92 -135 c22 -57 21 -59 -44 -58 -46 1 -47 7 -12 87 23 53 24 53 56 -29z"/>
<path d="M899 1133 c-1 -4 -2 -88 -3 -185 l-1 -178 42 0 43 0 0 75 0 75 34 0
c39 0 45 -6 112 -90 46 -59 48 -60 96 -60 37 0 47 3 42 13 -26 43 -87 118
-104 127 -25 13 -26 30 -2 30 31 0 72 43 79 82 7 46 -15 84 -59 102 -33 14
-277 22 -279 9z m229 -67 c26 -9 30 -47 7 -66 -8 -6 -46 -14 -85 -16 l-70 -5
0 49 0 48 63 -1 c34 0 72 -4 85 -9z"/>
<path d="M1718 1125 c-2 -5 -3 -86 -3 -180 l1 -170 149 0 c159 0 152 -2 146
45 0 5 -47 11 -103 12 l-103 3 -2 143 c0 79 -4 146 -8 150 -11 11 -74 8 -77
-3z"/>
<path d="M2079 1138 c-1 -2 -2 -85 -3 -185 l-2 -183 162 0 162 0 -2 30 -1 30
-117 0 -118 0 0 50 0 50 105 0 105 0 0 33 0 32 -105 -1 -105 -1 0 42 0 41 114
0 114 -1 0 32 0 33 -154 0 c-85 0 -155 -1 -155 -2z"/>
<path d="M2470 954 l0 -185 42 3 43 3 0 75 0 75 75 1 c41 1 81 2 88 3 6 1 12
14 12 31 l0 30 -88 0 -88 0 1 43 0 42 91 1 c49 0 95 4 102 8 7 4 12 18 12 32
l0 24 -145 0 -145 0 0 -186z"/>
<path d="M2830 955 l0 -185 43 0 43 0 -2 74 c-1 48 2 76 10 79 6 2 46 3 89 3
l77 -2 0 33 0 33 -89 0 -89 0 2 43 1 42 100 0 100 1 0 29 0 30 -142 3 -143 3
0 -186z"/>
</g>
</svg>
